<?xml version="1.0" encoding="UTF-8"?>
<svg xmlns="http://www.w3.org/2000/svg" xmlns:xlink="http://www.w3.org/1999/xlink" width="822.0px" height="821.0px" viewBox="0 0 822.0 821.0" version="1.1">

<defs>
<!-- polycosvg ratio="1.000000" offsetx="0.000000" offsety="0.000000" / -->
</defs><g>
<path style="fill:rgb(100.0%,100.0%,100.0%);fill-rule:evenodd;stroke:none;" name="Path No.2" d="M 0.0 821.0 C 273.9941 821.0 548.0219 821.0 822.0 821.0 C 822.0 547.33527 822.0 273.65936 822.0 0.0 C 547.996 0.0 273.9954 0.0 0.0 0.0 C 0.0 273.66614 0.0 547.34204 0.0 821.0 Z M 515.5 495.0 C 496.98593 526.50037 484.29907 561.5115 464.8375 592.5345 C 453.04028 610.1799 435.35498 613.625 416.86905 613.65234 C 396.92593 614.44763 376.94473 613.6682 357.0 614.0 C 357.07013 607.54596 361.5252 602.1896 363.49744 596.2896 C 372.864 576.5161 382.57553 556.8977 391.5335 536.9438 C 400.79144 517.3823 410.49326 497.85974 419.0 478.0 C 370.18875 472.20898 320.54874 473.165 271.6861 477.87796 C 236.28827 481.95084 200.95157 488.0116 166.77925 498.2465 C 142.6791 505.2193 119.31809 515.0457 98.01182 528.3365 C 81.942245 538.1016 67.54656 550.58105 57.119038 566.3383 C 40.62437 590.66455 36.99899 623.04816 47.644287 650.38434 C 57.993114 676.5128 79.71931 696.784 103.83866 710.3454 C 143.3185 733.0458 188.30998 744.0755 232.73804 751.9048 C 280.11526 759.91846 328.29398 762.6918 376.2782 760.59064 C 414.14673 758.68506 452.0558 754.47894 489.05682 746.0645 C 524.1347 738.7314 559.0376 727.5087 590.069 709.27374 C 611.8462 696.4284 631.651 678.43097 642.42456 655.1631 C 660.3169 618.51654 648.08636 572.87476 618.1216 546.643 C 589.75964 519.6204 551.8635 506.45212 515.5 495.0 Z M 459.0 250.0 C 463.12924 250.22511 464.23383 255.80182 465.87863 258.72394 C 471.99106 272.81906 478.2134 286.85065 484.46686 300.8664 C 490.0971 313.00278 495.02786 325.41495 500.6873 337.5359 C 503.5832 343.47528 499.30637 349.1077 497.15375 353.8047 C 478.7914 394.2864 459.0235 434.09024 440.2882 474.39294 C 421.24564 514.9178 401.47574 555.2649 383.0 596.0 C 399.9203 595.5355 420.18402 596.95575 435.4748 593.52094 C 448.43765 590.62885 453.10388 579.865 459.1161 569.56696 C 475.15555 536.5185 492.7195 504.181 508.09485 470.81787 C 524.53357 436.48038 542.12665 402.55377 558.0 368.0 C 558.98364 368.0 560.01636 368.0 561.0 368.0 C 563.73865 389.94287 563.3223 412.1691 565.86414 434.14276 C 567.59406 450.55368 567.33124 470.31207 570.6022 485.12402 C 573.73114 498.91394 585.08466 504.8035 597.4797 504.90076 C 637.26324 505.18378 677.0569 504.8493 716.8408 505.0 C 738.5126 504.2489 760.41473 505.91776 782.0 504.5 C 774.8753 492.73837 769.43335 477.00333 761.4112 467.0846 C 745.3452 447.59427 718.04205 454.14786 698.224 453.0 C 674.1506 453.0 650.072 453.0 626.0 453.0 C 621.02594 411.08456 621.86584 368.26505 613.63763 326.7209 C 608.6116 307.34598 598.1858 289.87286 590.7129 271.43094 C 586.4042 262.28107 582.28253 253.01086 578.1195 243.7947 C 575.15393 234.6336 568.0556 224.88185 567.0 216.0 C 586.67346 216.0 606.33185 216.0 626.0 216.0 C 636.2862 237.40329 650.6256 257.003 661.5682 278.13916 C 667.3339 286.55862 674.1388 301.0501 689.3543 297.8181 C 695.4727 296.23737 701.05133 292.54376 704.63245 287.2964 C 708.2902 281.64935 708.1043 274.49707 705.90674 268.41055 C 696.043 247.00787 683.3817 227.00888 672.1601 206.31284 C 666.3726 196.30855 659.67535 183.83315 651.11865 177.15698 C 640.9404 169.1608 627.7977 168.97552 615.573 168.46693 C 593.6083 167.1861 571.58203 167.94788 549.6046 167.18022 C 534.9031 166.94379 520.18494 166.99614 505.4948 167.0 C 493.13705 166.83832 480.55453 167.64842 468.83087 171.92766 C 449.72974 178.90099 437.95465 196.42215 426.9327 212.42203 C 418.50766 224.10411 410.2357 235.85364 401.9434 247.61737 C 398.86823 252.04527 395.76245 256.47278 392.69556 260.89948 C 389.71835 265.96338 384.4058 265.0187 379.247 264.91037 C 360.46597 264.4624 341.68292 263.90665 322.91278 263.16812 C 314.32663 262.9861 304.58667 262.976 297.35062 268.39832 C 289.7968 274.29 288.18964 282.30832 289.22546 290.6828 C 292.1948 311.70804 317.95926 309.47733 332.71716 310.55038 C 346.56387 311.56876 360.42188 312.09137 374.28253 312.78348 C 384.26724 312.98416 396.17926 314.76736 405.25034 312.86325 C 418.92062 310.05545 427.63107 294.1667 435.68198 284.38458 C 442.9591 272.72134 452.78403 262.21353 459.0 250.0 Z M 416.01703 110.97903 C 415.3984 138.6429 440.806 162.25804 467.9781 160.68774 C 494.32492 159.39009 517.33234 135.2678 515.7403 108.49787 C 514.68164 81.87319 489.74765 58.9477 462.91248 61.12181 C 437.30603 62.15517 415.72287 85.36112 416.01703 110.97903 Z " />

<path style="fill:rgb(1.5686276%,64.70589%,38.039215%);fill-rule:evenodd;stroke:none;" name="Path No.3" d="M 358.0 613.0 C 376.65408 566.8788 402.02338 523.06793 421.0 477.0 C 369.68045 471.19763 317.60992 472.02402 266.2918 477.33505 C 229.03624 481.68213 192.0683 488.8698 156.25948 500.10178 C 113.19873 515.1505 54.783936 540.8894 41.915176 600.05316 C 37.55454 626.54736 43.19707 654.6486 60.48821 675.80707 C 76.64336 696.55566 99.450966 710.74927 122.83085 721.86224 C 163.66664 740.15485 207.59483 749.9622 251.75969 755.89685 C 298.727 762.12854 346.3149 764.1083 393.61707 760.63214 C 431.63785 757.95917 469.52847 752.5374 506.5275 743.3528 C 541.45154 734.26855 576.2748 721.79926 605.85535 700.61304 C 623.075 688.4931 636.9492 672.0765 645.091 652.6112 C 652.2345 634.1952 653.6223 613.3595 648.79425 594.2173 C 641.2222 562.57684 615.94226 538.93506 588.7523 523.4026 C 567.50793 511.07486 544.14154 502.84314 520.77515 495.65915 C 518.77277 495.48508 516.179 494.0649 514.5422 494.7878 C 495.2662 525.3824 483.6448 561.0678 463.8375 591.5345 C 452.33716 608.7378 435.1763 612.5723 417.02832 612.59595 C 397.37534 613.4468 377.66324 612.68787 358.0 613.0 Z M 460.5 251.0 C 474.38153 278.89642 485.53296 308.53253 498.90033 336.75638 C 502.3669 342.62045 498.84396 347.54556 496.15375 352.8047 C 477.65195 393.5914 457.73346 433.7442 438.8302 474.34146 C 419.7298 515.2673 399.59564 555.8848 381.0 597.0 C 399.2198 596.35516 417.85583 598.28406 435.87918 594.67596 C 449.6189 591.76086 454.62897 580.2047 460.84277 569.2483 C 478.11917 534.7762 495.50214 500.3849 512.17786 465.63678 C 528.3021 433.5943 543.41797 401.0461 559.5 369.0 C 562.2547 382.03534 561.5128 398.13318 563.0305 410.24777 C 565.611 434.47614 565.54834 459.0361 568.8172 483.18 C 570.342 491.63086 574.8818 499.97238 583.36346 503.08176 C 591.0527 506.524 599.6719 506.01263 607.854 506.0 C 666.5147 505.24075 725.4258 506.92593 784.0 505.5 C 776.5665 493.14905 771.8432 479.07074 763.40826 467.28058 C 747.7247 446.7566 719.95984 452.80276 699.82336 452.0 C 675.5502 452.0 651.27185 452.0 627.0 452.0 C 622.4305 411.61954 622.27454 363.41348 614.8575 326.73965 C 610.25824 307.36026 599.5387 290.1031 592.3166 271.69894 C 584.6719 253.30005 574.799 235.72542 568.0 217.0 C 587.00653 217.0 605.99347 217.0 625.0 217.0 C 635.2862 238.40329 649.6256 258.003 660.5682 279.13916 C 666.4452 288.16507 673.5063 302.02695 689.14233 299.15823 C 700.4992 296.40073 712.19 286.558 707.9537 271.26437 C 704.8767 259.7825 696.6893 248.02223 691.80115 238.45067 C 685.8344 227.83318 679.85 217.21516 673.89136 206.60843 C 667.7511 196.10162 660.8596 182.71214 651.65894 175.85526 C 640.8678 167.6953 627.0104 167.99849 614.254 167.29274 C 591.4644 166.31378 568.6435 166.77087 545.8462 166.11517 C 531.3264 165.91772 516.81854 166.04388 502.30103 166.0 C 490.02185 165.86966 477.4543 167.0463 465.95993 171.65237 C 447.26712 179.22777 436.22598 197.0586 424.9887 212.69531 C 416.7779 224.28938 408.46548 235.81284 400.35107 247.46127 C 397.29077 251.86343 394.1609 256.23334 391.13388 260.65442 C 388.30832 265.0819 381.59274 263.90216 377.08136 263.86716 C 358.3575 263.31775 339.65643 262.71503 320.93884 262.11786 C 312.49075 262.0058 302.90073 262.14874 295.9581 267.7243 C 288.25345 273.8893 287.34152 282.14615 288.12018 290.62585 C 290.5125 313.66455 316.29904 309.55667 331.71835 311.55048 C 345.70248 312.6112 359.6921 313.0677 373.6952 313.8407 C 384.0025 314.07574 396.318 315.68927 405.70425 314.0004 C 419.67017 311.42578 428.585 295.33682 436.68198 285.38458 C 444.5372 273.90897 453.19012 262.7911 460.5 251.0 Z M 415.00482 110.78506 C 414.5288 124.3816 421.5329 139.49815 430.46393 147.71567 C 440.44003 156.8149 453.61496 162.13237 467.1936 161.825 C 494.54575 161.37886 518.3443 136.7134 516.86206 109.12555 C 516.6242 81.68165 491.39117 57.92625 463.826 60.04402 C 437.27982 59.987183 414.23624 84.13627 415.00482 110.78506 Z " />
</g>
</svg>
