<?xml version="1.0" encoding="UTF-8" standalone="no"?><svg xmlns:svg="http://www.w3.org/2000/svg" xmlns="http://www.w3.org/2000/svg" version="1.1" style="overflow:visible" viewBox="-250 -250 500 500" height="500px" width="500px"><rect fill-opacity="0" fill="rgb(0,0,0)" height="500" width="500" y="-250" x="-250" /><svg version="1.1" y="-250" x="-250" viewBox="-250 -250 500 500" height="500px" width="500px" style="overflow:visible"><g transform="rotate(0,0,0)" stroke-linejoin="round" fill="#fff"><path stroke-linecap="butt" stroke-linejoin="round" stroke-width="8" stroke-opacity="1" stroke="rgb(68,68,68)" fill="rgb(234,234,234)" d="m-122.693-74.586001a74.307 74.5862 0 0 0-74.307 74.5862a74.307 74.5862 0 0 0 74.307 74.5862h245.386a74.307 74.5862 0 0 0 74.307-74.5862a74.307 74.5862 0 0 0-74.307-74.5862z" /><path stroke-linecap="butt" stroke-linejoin="round" stroke-width="8" stroke-opacity="1" stroke="rgb(68,68,68)" fill="rgb(128,254,229)" d="m-74.307 0a48.386 48.5678 0 0 1-48.386 48.5678a48.386 48.5678 0 0 1-48.386-48.5678a48.386 48.5678 0 0 1 48.386-48.5678a48.386 48.5678 0 0 1 48.386 48.5678z" /><path stroke-linecap="butt" stroke-linejoin="round" stroke-width="8" stroke-opacity="1" stroke="rgb(68,68,68)" fill="rgb(255,227,75)" d="m48.386 0a48.386 48.5678 0 0 1-48.386 48.5678a48.386 48.5678 0 0 1-48.386-48.5678a48.386 48.5678 0 0 1 48.386-48.5678a48.386 48.5678 0 0 1 48.386 48.5678z" /><path stroke-linecap="butt" stroke-linejoin="round" stroke-width="8" stroke-opacity="1" stroke="rgb(68,68,68)" fill="rgb(255,75,75)" d="m171.079 0a48.386 48.5678 0 0 1-48.386 48.5678a48.386 48.5678 0 0 1-48.386-48.5678a48.386 48.5678 0 0 1 48.386-48.5678a48.386 48.5678 0 0 1 48.386 48.5678z" /><path stroke-linecap="butt" stroke-linejoin="round" stroke="none" fill="rgb(128,254,229)" d="m-99.691 0a23.0021 23.1473 0 0 1-23.0021 23.1473a23.0021 23.1473 0 0 1-23.0021-23.1473a23.0021 23.1473 0 0 1 23.0021-23.1473a23.0021 23.1473 0 0 1 23.0021 23.1472z" /><path stroke-linecap="butt" stroke-linejoin="round" stroke="none" fill="rgb(128,254,229)" d="m-108.733 0a14.2772 14.3673 0 0 1-14.2772 14.3673a14.2772 14.3673 0 0 1-14.2772-14.3673a14.2772 14.3673 0 0 1 14.2772-14.3672a14.2772 14.3673 0 0 1 14.2772 14.3672z" /><path stroke-linecap="butt" stroke-linejoin="round" stroke="none" fill="rgb(255,227,75)" d="m23.002 0a23.0021 23.1473 0 0 1-23.0021 23.1473a23.0021 23.1473 0 0 1-23.0021-23.1473a23.0021 23.1473 0 0 1 23.0021-23.1473a23.0021 23.1473 0 0 1 23.0021 23.1472z" /><path stroke-linecap="butt" stroke-linejoin="round" stroke="none" fill="rgb(255,227,75)" d="m13.959999 0a14.2772 14.3673 0 0 1-14.2772 14.3673a14.2772 14.3673 0 0 1-14.2772-14.3673a14.2772 14.3673 0 0 1 14.2772-14.3672a14.2772 14.3673 0 0 1 14.2772 14.3672z" /><path stroke-linecap="butt" stroke-linejoin="round" stroke="none" fill="rgb(255,75,75)" d="m145.695 0a23.0021 23.1473 0 0 1-23.0021 23.1473a23.0021 23.1473 0 0 1-23.0021-23.1473a23.0021 23.1473 0 0 1 23.0021-23.1473a23.0021 23.1473 0 0 1 23.0021 23.1472z" /><path stroke-linecap="butt" stroke-linejoin="round" stroke="none" fill="rgb(255,75,75)" d="m136.653 0a14.2772 14.3673 0 0 1-14.2772 14.3673a14.2772 14.3673 0 0 1-14.2772-14.3673a14.2772 14.3673 0 0 1 14.2772-14.3672a14.2772 14.3673 0 0 1 14.2772 14.3672z" /></g></svg></svg>